<svg xmlns="http://www.w3.org/2000/svg" width="600" height="303.186" viewBox="0 0 600 303.186"><path d="M451.518 130.843c2.825 3.1 5.651 6.152 8.478 9.16h9.844a800.377 800.377 0 0 1-6.29-9.16c-2.097-3.097-4.193-6.199-6.29-9.298h-14.083c2.735 3.1 5.513 6.2 8.341 9.298zm-211.517 13.522v36.462c0 3.2.6 6.173 1.784 8.841 1.184 2.661 2.823 4.967 4.872 6.854 2.034 1.876 4.462 3.356 7.214 4.398 2.733 1.035 5.7 1.56 8.815 1.56 3.112 0 6.087-.525 8.849-1.558 2.77-1.04 5.22-2.519 7.28-4.392 2.08-1.891 3.733-4.2 4.917-6.862 1.184-2.668 1.785-5.642 1.785-8.841v-36.462H272.71v36.24c0 1.313-.246 2.504-.755 3.641a9.481 9.481 0 0 1-2.116 3.008 10.652 10.652 0 0 1-3.22 2.092c-2.41 1.02-5.457 1.023-7.821.004a10.294 10.294 0 0 1-3.142-2.081 9.741 9.741 0 0 1-2.094-3.023c-.509-1.133-.755-2.325-.755-3.64v-36.24h-12.807zm-2.37 45.162h-26.078v-45.162h-12.807v57.525h38.885v-12.363zm180.045-46.666h-13.108v59.029h13.108v-59.029zm161.88 46.97c-2.416.867-4.808 1.298-7.177 1.298-3.466 0-6.565-.865-9.299-2.598a18.47 18.47 0 0 1-6.427-6.836 725.271 725.271 0 0 0 10.802-4.308c3.919-1.593 7.839-3.166 11.76-4.717 3.92-1.548 7.678-3.03 11.28-4.444 3.601-1.413 6.77-2.62 9.505-3.625-2.099-6.471-5.63-11.69-10.598-15.656-4.97-3.965-10.734-5.948-17.298-5.948-4.103 0-7.999.8-11.69 2.393-3.692 1.596-6.929 3.783-9.709 6.563-2.782 2.782-4.992 6.017-6.631 9.709-1.642 3.691-2.463 7.636-2.463 11.829 0 4.193.821 8.136 2.463 11.827 1.64 3.692 3.85 6.929 6.631 9.709 2.78 2.782 6.061 4.97 9.844 6.563 3.783 1.595 7.816 2.393 12.102 2.393 4.192 0 8.294-.73 12.307-2.187 4.011-1.458 7.428-3.464 10.254-6.017l-9.706-9.436c-1.553 1.46-3.534 2.623-5.95 3.488zm-24.817-17.023c0-2.19.454-4.309 1.366-6.36a18.658 18.658 0 0 1 3.692-5.47c1.55-1.593 3.419-2.87 5.606-3.829 2.19-.956 4.513-1.435 6.976-1.435 2.094 0 4.237.479 6.425 1.435 2.19.958 3.83 2.44 4.923 4.444a354.407 354.407 0 0 0-6.425 2.531 531.187 531.187 0 0 0-7.453 3.075 563.818 563.818 0 0 1-7.796 3.215 2018.07 2018.07 0 0 1-7.314 2.94v-.546zm-26.861-25.503c-2.143 1.413-4.217 3.124-6.223 5.127a23.745 23.745 0 0 0-4.786 6.838 184.59 184.59 0 0 0-.614-6.907c-.229-2.05-.435-4.716-.615-7.998h-11.488v58.114h13.128v-26.938c0-2.642.548-4.943 1.642-6.904a15.428 15.428 0 0 1 4.306-4.923c1.777-1.32 3.83-2.301 6.154-2.94 2.323-.637 4.761-.958 7.315-.958l2.87-16.955c-1.457 0-3.236.388-5.33 1.163-2.1.774-4.218 1.868-6.359 3.281zm-156.28-4.444c-2.689 0-5.039.388-7.053 1.163-2.015.774-3.8 1.846-5.352 3.212-1.555 1.367-2.96 3.009-4.22 4.923a43.275 43.275 0 0 0-3.4 6.29c-.588-4.65-2.456-8.41-5.604-11.282-3.15-2.87-7.367-4.306-12.657-4.306-5.374.091-9.593 1.62-12.656 4.58-3.065 2.963-5.603 6.906-7.62 11.829a333.225 333.225 0 0 0-.251-3.556c-.084-1.094-.17-2.21-.252-3.35-.084-1.139-.17-2.346-.251-3.623-.086-1.276-.17-2.736-.253-4.376h-10.703v58.114h12.088v-28.032c0-5.376 1.365-9.821 4.093-13.331 2.728-3.51 6.57-5.265 11.524-5.265 3.609.184 6.234 1.298 7.871 3.35 1.637 2.05 2.538 4.49 2.708 7.315v35.963h12.09v-27.894c0-5.47 1.363-9.96 4.093-13.47 2.726-3.509 6.567-5.264 11.522-5.264 3.695.184 6.339 1.298 7.935 3.35 1.593 2.05 2.474 4.49 2.644 7.315v35.963h12.09v-42.115c-.17-5.196-1.888-9.412-5.163-12.649-3.274-3.234-7.681-4.854-13.223-4.854zm97.671 29.81c3.92-1.55 7.68-3.032 11.282-4.445 3.6-1.413 6.769-2.62 9.504-3.625-2.098-6.471-5.63-11.69-10.598-15.656-4.97-3.965-10.733-5.948-17.298-5.948-4.102 0-7.998.8-11.69 2.393-3.692 1.596-6.929 3.783-9.709 6.563-2.781 2.782-4.991 6.017-6.631 9.709-1.642 3.691-2.462 7.636-2.462 11.829 0 4.193.82 8.136 2.462 11.827 1.64 3.692 3.85 6.929 6.631 9.709 2.78 2.782 6.062 4.97 9.845 6.563 3.782 1.595 7.816 2.393 12.102 2.393 4.191 0 8.293-.73 12.306-2.187 4.012-1.458 7.428-3.464 10.255-6.017l-9.707-9.436c-1.552 1.46-3.534 2.623-5.95 3.488-2.416.867-4.808 1.298-7.177 1.298-3.465 0-6.565-.865-9.298-2.598a18.47 18.47 0 0 1-6.428-6.836 725.38 725.38 0 0 0 10.803-4.308c3.918-1.593 7.838-3.166 11.758-4.717zm-24.475.683v-.546c0-2.19.455-4.309 1.367-6.36a18.655 18.655 0 0 1 3.691-5.47c1.551-1.593 3.42-2.87 5.607-3.829 2.19-.956 4.512-1.435 6.975-1.435 2.095 0 4.238.479 6.425 1.435 2.19.958 3.83 2.44 4.923 4.444a354.85 354.85 0 0 0-6.425 2.531 531.796 531.796 0 0 0-7.452 3.075 563.198 563.198 0 0 1-7.796 3.215c-2.598 1.05-5.037 2.03-7.315 2.94zm-179.03-59.092a2115.902 2115.902 0 0 0 11.646-31 6038.434 6038.434 0 0 1 11.497-31.115l-13.492 1.45c-2.626 6.82-4.665 12.293-6.12 16.425-1.457 4.131-2.577 7.477-3.362 10.033-.785 2.56-1.342 4.584-1.665 6.077-.328 1.492-.666 3.053-1.022 4.68a97.443 97.443 0 0 0-1.86-4.37c-.635-1.39-1.609-3.25-2.92-5.585-1.31-2.331-3.115-5.362-5.414-9.09-2.303-3.729-5.458-8.645-9.47-14.752L229.96 58.48a2633.834 2633.834 0 0 1 17.713 27.977 895.162 895.162 0 0 0 18.092 27.806zm31.382-22.26c2.013 3.476 4.542 6.442 7.588 8.895 3.044 2.456 6.52 4.27 10.43 5.444 3.91 1.176 7.983 1.537 12.221 1.082 4.144-.445 8.123-1.603 11.936-3.47 3.812-1.868 6.976-4.213 9.5-7.038l-10.599-8.3c-1.38 1.609-3.216 2.969-5.513 4.08-2.297 1.115-4.616 1.795-6.959 2.046-3.426.369-6.583-.158-9.47-1.58a18.37 18.37 0 0 1-7.08-6.077c3.108-1.61 6.516-3.412 10.223-5.408 3.705-1.99 7.414-3.963 11.126-5.912 3.711-1.948 7.27-3.812 10.683-5.592 3.41-1.78 6.413-3.31 9.011-4.594-2.762-6.176-6.808-10.96-12.14-14.355-5.335-3.393-11.245-4.742-17.736-4.045-4.057.436-7.824 1.641-11.305 3.609-3.48 1.969-6.45 4.476-8.903 7.52-2.455 3.046-4.296 6.48-5.526 10.304-1.23 3.824-1.624 7.812-1.178 11.958.445 4.146 1.675 7.957 3.69 11.433zm9.892-19.937a18.553 18.553 0 0 1 3.07-5.8c1.364-1.74 3.075-3.202 5.137-4.381 2.063-1.179 4.309-1.9 6.744-2.16 2.071-.223 4.24.023 6.506.736 2.266.715 4.045 2.007 5.34 3.872a352.31 352.31 0 0 0-6.085 3.185 529.39 529.39 0 0 0-7.042 3.832 559.475 559.475 0 0 1-7.367 4.006 1987.758 1987.758 0 0 1-6.92 3.684l-.059-.54a15.412 15.412 0 0 1 .676-6.434zm257.908-61.986A747.558 747.558 0 0 0 572.206 0L558.28 1.496a1056.376 1056.376 0 0 0-5.164 9.854 462.5 462.5 0 0 1-5.18 9.719l9.6-1.031a856.973 856.973 0 0 0 7.41-9.959zm-87.05 82.01l-6.448-60.032-13.33 1.432 6.447 60.033 13.33-1.432zm58.826-24.27c2.014 3.476 4.542 6.441 7.588 8.895 3.045 2.455 6.522 4.27 10.431 5.443 3.91 1.176 7.983 1.537 12.22 1.082 4.145-.445 8.124-1.602 11.937-3.47 3.811-1.867 6.977-4.213 9.5-7.038l-10.6-8.3c-1.38 1.61-3.215 2.969-5.512 4.081-2.297 1.114-4.616 1.794-6.96 2.046-3.426.368-6.582-.159-9.469-1.582a18.37 18.37 0 0 1-7.081-6.076A722.317 722.317 0 0 0 559 57.493c3.705-1.992 7.414-3.963 11.125-5.913 3.712-1.947 7.271-3.812 10.683-5.592a466.14 466.14 0 0 1 9.013-4.594c-2.762-6.176-6.809-10.96-12.142-14.355-5.335-3.393-11.245-4.742-17.736-4.044-4.056.435-7.823 1.64-11.304 3.608-3.481 1.97-6.45 4.476-8.903 7.52-2.455 3.046-4.297 6.48-5.526 10.304-1.231 3.825-1.624 7.812-1.179 11.958.446 4.146 1.676 7.957 3.691 11.433zm9.893-19.938a18.552 18.552 0 0 1 3.07-5.8c1.364-1.74 3.075-3.201 5.136-4.381 2.064-1.178 4.31-1.899 6.745-2.16 2.07-.223 4.24.023 6.505.737 2.267.715 4.046 2.006 5.34 3.87a352.446 352.446 0 0 0-6.084 3.186 529.061 529.061 0 0 0-7.042 3.832 557.418 557.418 0 0 1-7.368 4.007 2000.148 2000.148 0 0 1-6.92 3.683l-.058-.54a15.417 15.417 0 0 1 .676-6.434zM410.172 63.704c1.443 1.988 3.116 3.564 5.02 4.726a26.594 26.594 0 0 0 6.177 2.756c2.214.674 4.243 1.302 6.082 1.877 1.84.578 3.417 1.252 4.73 2.021 1.315.773 2.049 1.88 2.204 3.32.155 1.444-.322 2.725-1.433 3.847-1.111 1.124-2.793 1.804-5.046 2.046a13.22 13.22 0 0 1-4.265-.225c-1.4-.305-2.625-.677-3.674-1.11-1.052-.435-1.89-.824-2.52-1.165-.629-.343-.938-.47-.928-.38a165.919 165.919 0 0 0-2.597 3.834 464.008 464.008 0 0 1-2.235 3.387 161.468 161.468 0 0 1-2.008 2.952c2.232 2.132 5.155 3.64 8.76 4.528a31.39 31.39 0 0 0 10.953.74c3.063-.33 5.765-1.077 8.101-2.24 2.338-1.161 4.303-2.603 5.895-4.326a15.582 15.582 0 0 0 3.46-5.979c.716-2.264.932-4.702.65-7.317-.319-2.975-1.195-5.41-2.63-7.308-1.434-1.897-3.103-3.429-5.007-4.59a26.72 26.72 0 0 0-6.176-2.757 122.493 122.493 0 0 1-6.097-2.012c-1.849-.667-3.438-1.453-4.767-2.36-1.329-.905-2.074-2.125-2.239-3.658-.193-1.801.376-3.07 1.71-3.808 1.335-.735 2.633-1.172 3.896-1.308a12.796 12.796 0 0 1 3.497.104c1.16.195 2.188.428 3.084.694.894.27 1.827.671 2.796 1.204a106.821 106.821 0 0 1 2.206-3.656 97.864 97.864 0 0 0 1.919-3.147 74.172 74.172 0 0 0 1.663-2.98c-2.297-1.851-5.016-3.177-8.156-3.98-3.141-.803-6.109-1.055-8.901-.755-2.075.223-4.16.744-6.26 1.562-2.1.82-4.004 2.004-5.704 3.553-1.704 1.55-3.026 3.472-3.964 5.76-.94 2.29-1.234 5.057-.885 8.301.348 3.245 1.244 5.862 2.689 7.849zM383.93 44.882c-1.969 1.625-3.838 3.536-5.608 5.73a23.613 23.613 0 0 0-4.006 7.27c-.453-2.504-.9-4.76-1.341-6.764-.444-2.003-.931-4.618-1.457-7.843l-11.36 1.22 6.172 57.461 12.98-1.394-2.86-26.636c-.281-2.612.016-4.946.89-7a15.341 15.341 0 0 1 3.735-5.326c1.617-1.494 3.542-2.682 5.773-3.56 2.23-.877 4.606-1.453 7.13-1.725l1.039-17.069c-1.441.155-3.16.728-5.148 1.716-1.993.988-3.972 2.295-5.939 3.92zm134.929 43.25l-5.066-47.164 13.87-1.49-1.382-12.868-40.765 4.378 1.382 12.868 13.564-1.457 5.066 47.165 13.33-1.431zM79.885 120.654c1.575 2.716 3.598 5 6.013 6.788 2.398 1.776 5.17 3.084 8.24 3.885 3.052.794 6.293 1.014 9.631.656 3.337-.359 6.468-1.263 9.309-2.688 2.853-1.435 5.31-3.303 7.3-5.549 2.01-2.266 3.519-4.931 4.483-7.923.962-2.997 1.263-6.254.895-9.685l-4.2-39.094-13.73 1.475L112 107.374c.15 1.407.023 2.713-.39 3.993a10.232 10.232 0 0 1-1.922 3.466 11.523 11.523 0 0 1-3.214 2.614c-2.464 1.371-5.732 1.726-8.384.905a11.087 11.087 0 0 1-3.608-1.87 10.477 10.477 0 0 1-2.595-2.999c-.674-1.157-1.076-2.406-1.228-3.817L86.486 70.81l-13.73 1.474 4.198 39.095c.369 3.432 1.355 6.554 2.931 9.274zm143.208-3.976l-6.331-58.949-13.09 1.406 6.331 58.95 13.09-1.407zm-70.14 7.313l-2.978-27.718c-.28-2.612-.115-5.093.5-7.438.614-2.345 1.623-4.415 3.027-6.206 1.401-1.792 3.156-3.281 5.265-4.464 2.105-1.183 4.465-1.915 7.08-2.196 3.806-.225 6.717.577 8.74 2.412 2.019 1.833 3.269 4.14 3.75 6.913l3.82 35.56 12.844-1.38-4.473-41.643c-.733-5.118-3.006-9.09-6.818-11.918-3.815-2.825-8.651-3.926-14.51-3.297-5.678.61-10.251 2.606-13.717 5.987-3.467 3.381-5.975 7.616-7.525 12.707-.452-2.504-.9-4.759-1.342-6.764-.443-2.003-.93-4.618-1.458-7.843l-11.357 1.22 6.172 57.462 12.98-1.394zm140.132 116.28c-2.294-2.812-5.133-5.132-8.513-6.964-3.384-1.828-7.135-2.936-11.257-3.32-4.037-.375-7.907.024-11.61 1.194-3.704 1.173-7.008 2.922-9.908 5.252-2.903 2.33-5.268 5.162-7.092 8.5-1.827 3.339-2.923 6.983-3.29 10.934-.4 4.295.007 8.296 1.222 12.004 1.215 3.707 3.013 6.95 5.398 9.727 2.382 2.777 5.271 5.016 8.665 6.717 3.394 1.7 7.108 2.74 11.146 3.115 4.207.391 8.14-.002 11.804-1.177 3.659-1.174 6.902-2.951 9.72-5.332 2.82-2.38 5.1-5.263 6.846-8.655 1.744-3.388 2.8-7.057 3.167-11.01.368-3.95-.015-7.732-1.154-11.346-1.136-3.614-2.85-6.826-5.144-9.639zm-6.08 19.965c-.215 2.318-.866 4.446-1.956 6.379-1.09 1.935-2.458 3.585-4.099 4.946a16.616 16.616 0 0 1-5.61 3.052c-2.098.672-4.31.898-6.626.683-2.32-.216-4.45-.846-6.386-1.893a16.553 16.553 0 0 1-4.953-4.033 16.585 16.585 0 0 1-3.052-5.612c-.671-2.097-.898-4.306-.682-6.624.215-2.32.845-4.448 1.892-6.385a16.628 16.628 0 0 1 4.034-4.952c1.641-1.364 3.514-2.404 5.617-3.117 2.101-.715 4.312-.963 6.631-.747 2.318.215 4.447.866 6.382 1.957a17.59 17.59 0 0 1 4.945 4.098c1.36 1.643 2.4 3.517 3.116 5.618.716 2.1.963 4.31.748 6.63zm-115.867-39.994l-13.135-1.221-5.364 57.698 39.883 3.708 1.153-12.401-26.749-2.487 4.212-45.297zm57.054 5.304l-.655.911c-.242.338-.703 1.03-1.379 2.073l-11.855 18.433c-.597.929-1.152 1.788-1.68 2.603-.363-.877-.754-1.834-1.175-2.869a572.536 572.536 0 0 0-2.247-5.443l-4.556-10.865a651.188 651.188 0 0 0-1.726-4.048 127.54 127.54 0 0 0-.995-2.26l-.473-1.02-15.45-1.437 1.932 3.233c.061.104.349.64 1.469 3.24.838 1.947 1.87 4.288 3.095 7.02a889.623 889.623 0 0 1 3.83 8.684 809.785 809.785 0 0 0 3.85 8.726 535.025 535.025 0 0 1 3.072 6.969c.722 1.678 1.133 2.578 1.385 3.096l-1.747 18.799 13.21 1.228 1.754-18.866 25.278-36.818-14.937-1.389zm119.465 11.223c-5.41-.503-10.051.495-13.922 2.994-3.87 2.499-7.009 5.974-9.415 10.429.05-2.42.059-4.608.025-6.559-.035-1.953.004-4.484.122-7.59l-10.823-1.007-5.09 54.75 12.367 1.15 2.456-26.41c.231-2.49.855-4.771 1.871-6.842 1.015-2.069 2.345-3.809 3.993-5.216 1.645-1.407 3.562-2.462 5.751-3.169 2.189-.705 4.526-.943 7.02-.711 3.589.508 6.154 1.807 7.692 3.898 1.537 2.093 2.268 4.48 2.194 7.157l-3.15 33.88 12.238 1.137 3.689-39.677c.281-4.911-1.088-9.044-4.11-12.401-3.023-3.355-7.327-5.294-12.908-5.813zm88.155 16.433c-1.35-1.783-3.067-3.281-5.147-4.496-2.08-1.212-4.448-1.98-7.103-2.301-2.873-.347-5.477-.179-7.813.5-2.337.681-4.36 1.714-6.065 3.103a16.016 16.016 0 0 0-4.112 5.028 17.777 17.777 0 0 0-1.944 6.2c-.125 1.028-.117 2.21.025 3.546.14 1.338.418 2.69.83 4.061.411 1.369.957 2.657 1.635 3.867s1.526 2.15 2.546 2.822l5.576-4.523a11.013 11.013 0 0 1-1.96-3.906c-.403-1.45-.496-3.07-.28-4.857.085-.705.325-1.556.72-2.552.395-.997 1.015-1.912 1.858-2.744.842-.835 1.914-1.514 3.215-2.046 1.302-.529 2.9-.682 4.797-.453.92.111 1.897.45 2.93 1.013a10.07 10.07 0 0 1 2.776 2.274c.819.952 1.463 2.116 1.93 3.49.464 1.378.594 2.933.384 4.668-.314 2.598-1.386 5.22-3.217 7.856-1.83 2.64-4.145 5.301-6.944 7.988-2.798 2.686-5.96 5.422-9.485 8.214a3448.94 3448.94 0 0 0-10.948 8.698l37.554 4.535.982-8.13-17.558-2.12a162.004 162.004 0 0 0 6.535-6.304 60.136 60.136 0 0 0 5.522-6.465 39.383 39.383 0 0 0 4.04-6.811 24.68 24.68 0 0 0 2.09-7.417 17.791 17.791 0 0 0-.465-6.738 17.056 17.056 0 0 0-2.904-6zm-267.12-80.53H0v8.727h168.692v-8.728zM57.667 114.213l-1.05-8.664-56.529 6.856 1.051 8.664 56.528-6.856zM.097 235.52l122.561 13.724.971-8.674L1.07 226.846l-.971 8.674z" fill="#030303"/></svg>